Coordinates
version=1
nRows=7
nColumns=40
inDegrees=yes

Units are S.I. units (second, meters, Newtons, ...)
Angles are in degrees.

endheader
time	pelvis_tilt	pelvis_list	pelvis_rotation	pelvis_tx	pelvis_ty	pelvis_tz	hip_flexion_r	hip_adduction_r	hip_rotation_r	knee_angle_r	knee_angle_r_beta	ankle_angle_r	subtalar_angle_r	mtp_angle_r	hip_flexion_l	hip_adduction_l	hip_rotation_l	knee_angle_l	knee_angle_l_beta	ankle_angle_l	subtalar_angle_l	mtp_angle_l	lumbar_extension	lumbar_bending	lumbar_rotation	arm_flex_r	arm_add_r	arm_rot_r	elbow_flex_r	pro_sup_r	wrist_flex_r	wrist_dev_r	arm_flex_l	arm_add_l	arm_rot_l	elbow_flex_l	pro_sup_l	wrist_flex_l	wrist_dev_l
     21.98892857	     -9.21854418	     -3.89990863	     -2.85717754	      1.00125819	      0.91958358	      0.42291944	     29.84091627	     -4.66181881	     -5.92998341	     28.96016593	     28.96016593	      7.04121295	     -4.18384220	     -2.38654054	     18.64203311	     -2.13223303	     -4.37890593	     25.12900540	     25.12900540	     18.10252069	    -15.57357847	      6.35333665	    -10.60834394	      4.04319917	      4.66003734	    -19.99621837	    -12.40501347	     -2.18739465	     35.29483444	     45.50396016	      0.00000000	      0.00000000	     44.61145940	    -19.66737085	      0.65201886	     72.10971822	     47.50864967	      0.00000000	      0.00000000
     22.01285714	     -9.23622576	     -3.59421030	     -3.26182545	      1.00008630	      0.91936464	      0.42619245	     29.35829206	     -4.49146629	     -6.36742143	     25.66222809	     25.66222809	      6.70543520	     -1.56644450	     -1.37144595	     18.16267593	     -2.11326809	     -4.86686303	     24.78024910	     24.78024910	     18.18260569	    -15.41284046	      6.09360935	    -10.54729163	      3.73213293	      4.74519362	    -19.94279731	    -12.42818014	     -2.06452048	     35.51455164	     45.49071511	      0.00000000	      0.00000000	     45.36423315	    -19.78616734	      0.22042212	     72.80647330	     47.55758696	      0.00000000	      0.00000000
     22.03678571	     -9.31918652	     -3.08835550	     -3.61973480	      0.99898524	      0.91859419	      0.42959562	     29.30425040	     -4.49018326	     -6.33917487	     23.47922980	     23.47922980	      6.31387095	      0.13973075	     -0.59077372	     17.92804779	     -1.88582879	     -5.35602111	     24.73502754	     24.73502754	     18.30547263	    -15.45370323	      5.87885267	    -10.40916256	      3.19955635	      4.77111314	    -19.75271724	    -12.43014388	     -2.01049752	     35.72411364	     45.48183637	      0.00000000	      0.00000000	     46.14855931	    -19.95420517	     -0.13946256	     73.32517162	     47.59753382	      0.00000000	      0.00000000
     22.06071429	     -9.13945448	     -2.81702017	     -3.79942622	      0.99862357	      0.91831439	      0.43296611	     29.01507255	     -4.55663038	     -7.15940606	     22.23782131	     22.23782131	      7.39482784	      3.08904595	      3.29613352	     17.20109706	     -1.82025077	     -5.55143366	     24.33827216	     24.33827216	     18.00796444	    -15.57096462	      4.56989683	    -10.59299383	      3.05417839	      4.23345363	    -19.36609247	    -12.95681782	     -0.66316533	     36.49911374	     45.40908971	      0.00000000	      0.00000000	     45.75600803	    -20.15166095	     -2.20840087	     75.25355250	     47.78639227	      0.00000000	      0.00000000
     22.08464286	     -9.11850438	     -2.43284692	     -3.92051838	      0.99829578	      0.91759523	      0.43669109	     28.98981362	     -4.52756227	     -7.00364919	     21.48934662	     21.48934662	      7.23704084	      3.72258205	      3.43237110	     16.85523278	     -1.65841968	     -5.66634890	     24.35721652	     24.35721652	     18.22752545	    -15.64848911	      4.49975442	    -10.52214603	      2.77349330	      4.27563396	    -19.08555694	    -13.00612387	     -0.61704780	     36.61781876	     45.40625693	      0.00000000	      0.00000000	     46.12410616	    -20.17924129	     -2.33629424	     75.43882376	     47.80184953	      0.00000000	      0.00000000
     22.10857143	     -9.05483067	     -2.12993747	     -3.95437471	      0.99827192	      0.91692829	      0.44074748	     29.01796808	     -4.47177524	     -6.84329468	     21.43956044	     21.43956044	      7.24876011	      3.92220171	      3.32301763	     16.46717212	     -1.58622589	     -5.67844956	     24.42024174	     24.42024174	     18.46359654	    -15.75207072	      4.43776490	    -10.50593460	      2.57874415	      4.28906149	    -18.79574425	    -13.12235228	     -0.61197418	     36.72542420	     45.40538102	      0.00000000	      0.00000000	     46.34076484	    -20.15564710	     -2.46579840	     75.57983354	     47.81513263	      0.00000000	      0.00000000
     22.13250000	     -8.95104495	     -1.85861636	     -3.87523243	      0.99855888	      0.91636578	      0.44506113	     29.06263346	     -4.43620649	     -6.63672912	     21.94244210	     21.94244210	      7.44572484	      3.69839291	      2.87122595	     15.99104603	     -1.53142393	     -5.55537322	     24.41674793	     24.41674793	     18.70787429	    -15.83097407	      4.43051677	    -10.54349671	      2.44755691	      4.25572122	    -18.51545870	    -13.23931780	     -0.59323387	     36.83156891	     45.40438396	      0.00000000	      0.00000000	     46.39639095	    -20.10749063	     -2.70366243	     75.72425623	     47.83496556	      0.00000000	      0.00000000
